# xmcd CD database file
#
# Track frame offsets:
#	150
#	16955
#	33450
#	78545
#	101734
#	120429
#	157007
#	167058
#	212051
#
# Disc length: 3194 seconds
#
# Revision: 0
# Processed by: cddbd v1.4PL0 Copyright (c) Steve Scherf et al.
# Submitted via: CDex 1.51
#
DISCID=6f0c7809
DTITLE=Llewellyn - Moonchild
DYEAR=1996
DGENRE=New Age
TTITLE0=Llewellyn - Moonchild - 01 - Moonchild, Pt 1
TTITLE1=Llewellyn - Moonchild - 02 - Can You Hear Me
TTITLE2=Llewellyn - Moonchild - 03 - Through The Eyes Of A Child
TTITLE3=Llewellyn - Moonchild - 04 - A Trusting Gaze
TTITLE4=Llewellyn - Moonchild - 05 - Moonchild, Pt 2
TTITLE5=Llewellyn - Moonchild - 06 - Lux
TTITLE6=Llewellyn - Moonchild - 07 - Through The Storm
TTITLE7=Llewellyn - Moonchild - 08 - Feel The Spirit
TTITLE8=Llewellyn - Moonchild - 09 - Moonchild, Pt 3
EXTD=YEAR: 1996
EXTT0=
EXTT1=
EXTT2=
EXTT3=
EXTT4=
EXTT5=
EXTT6=
EXTT7=
EXTT8=
PLAYORDER=
